<svg width="25" height="25" viewBox="0 0 25 25" fill="none" xmlns="http://www.w3.org/2000/svg">
<g id="Group 2025">
<ellipse id="Ellipse 247" cx="12.2383" cy="12.3284" rx="11.3428" ry="11.7537" fill="url(#paint0_linear_78_152)"/>
<path id="Vector 84" d="M5.85592 8.55487L18.7745 7.401C19.5308 7.33344 20.0294 8.17672 19.6277 8.84422L12.7674 20.2458C12.401 20.8547 11.5444 20.8604 11.1873 20.2564L9.64401 17.6459C9.4389 17.299 9.47346 16.8529 9.72994 16.537L12.2361 13.4501C12.7792 12.7812 12.2543 11.7857 11.4189 11.9001L7.22879 12.4739C6.86705 12.5235 6.51368 12.3509 6.32562 12.0328L5.12904 10.0087C4.77195 9.40468 5.16604 8.61649 5.85592 8.55487Z" fill="white"/>
</g>
<defs>
<linearGradient id="paint0_linear_78_152" x1="12.2383" y1="0.574707" x2="12.2383" y2="24.0822" gradientUnits="userSpaceOnUse">
<stop offset="0.151042" stop-color="#61D1B5"/>
<stop offset="1" stop-color="#A1A3F7"/>
</linearGradient>
</defs>
</svg>
